<?xml version="1.0" encoding="utf-8"?>
<!-- Generator: Adobe Illustrator 16.0.0, SVG Export Plug-In . SVG Version: 6.00 Build 0)  -->
<!DOCTYPE svg PUBLIC "-//W3C//DTD SVG 1.1//EN" "http://www.w3.org/Graphics/SVG/1.1/DTD/svg11.dtd">
<svg version="1.1" id="Layer_1" xmlns="http://www.w3.org/2000/svg" xmlns:xlink="http://www.w3.org/1999/xlink" x="0px" y="0px"
	 width="1024px" height="768px" viewBox="0 0 1024 768" enable-background="new 0 0 1024 768" xml:space="preserve">
<path fill="#CA9D81" d="M824,96H200c-39.765,0-72,32.235-72,72v432c0,39.765,32.235,72,72,72h624c39.765,0,72-32.235,72-72V168
	C896,128.235,863.765,96,824,96z M824,168v61.208c-33.633,27.389-87.252,69.977-201.881,159.735
	c-25.261,19.869-75.301,67.607-110.119,67.052c-34.812,0.562-84.868-47.188-110.119-67.052
	C287.27,299.197,233.638,256.601,200,229.208V168H824z M200,600V321.597c34.371,27.377,83.113,65.793,157.407,123.971
	c32.785,25.807,90.201,82.777,154.593,82.432c64.075,0.347,120.764-55.798,154.579-82.42
	c74.292-58.176,123.049-96.603,157.421-123.98V600H200z"/>
</svg>
