<?xml version="1.0" encoding="utf-8"?>
<!-- Generator: Adobe Illustrator 16.0.0, SVG Export Plug-In . SVG Version: 6.00 Build 0)  -->
<!DOCTYPE svg PUBLIC "-//W3C//DTD SVG 1.1//EN" "http://www.w3.org/Graphics/SVG/1.1/DTD/svg11.dtd">
<svg version="1.1" id="Layer_1" xmlns="http://www.w3.org/2000/svg" xmlns:xlink="http://www.w3.org/1999/xlink" x="0px" y="0px"
	 width="1024px" height="768px" viewBox="0 0 1024 768" enable-background="new 0 0 1024 768" xml:space="preserve">
<path fill="#CA9D81" d="M812,469.05V684c0,19.95-16.05,36-36,36H602c-9.9,0-18-8.1-18-18V534c0-9.9-8.1-18-18-18H458
	c-9.9,0-18,8.1-18,18v168c0,9.9-8.1,18-18,18H248c-19.95,0-36-16.05-36-36V469.05c0-5.398,2.4-10.5,6.6-13.95l282-232.2
	c6.602-5.4,16.2-5.4,22.95,0l282,232.2C809.6,458.55,812,463.65,812,469.05L812,469.05z M937.4,377.7L812,274.35V66.6
	c0-9.9-8.1-18-18-18h-84c-9.9,0-18,8.1-18,18v108.9L557.75,64.95c-26.55-21.9-64.95-21.9-91.5,0L86.6,377.7
	c-7.65,6.3-8.7,17.7-2.4,25.35l38.25,46.5c6.3,7.65,17.7,8.7,25.35,2.4L500.6,161.4c6.602-5.4,16.2-5.4,22.95,0l352.8,290.55
	c7.65,6.3,19.052,5.25,25.352-2.4l38.25-46.5C946.25,395.25,945.05,384,937.4,377.7z"/>
</svg>
