<?xml version="1.0" encoding="utf-8"?>
<!-- Generator: Adobe Illustrator 16.0.0, SVG Export Plug-In . SVG Version: 6.00 Build 0)  -->
<!DOCTYPE svg PUBLIC "-//W3C//DTD SVG 1.1//EN" "http://www.w3.org/Graphics/SVG/1.1/DTD/svg11.dtd">
<svg version="1.1" id="Layer_1" xmlns="http://www.w3.org/2000/svg" xmlns:xlink="http://www.w3.org/1999/xlink" x="0px" y="0px"
	 width="1024px" height="768px" viewBox="0 0 1024 768" enable-background="new 0 0 1024 768" xml:space="preserve">
<path fill="#CA9D81" d="M868.1,36.9l-156-36C695.15-3,677.75,5.85,670.85,21.75l-72,168c-6.3,14.7-2.1,31.95,10.351,42l90.899,74.4
	c-54,115.05-148.35,210.75-265.8,265.8l-74.4-90.9c-10.2-12.45-27.3-16.649-42-10.35l-168,72c-16.05,7.05-24.9,24.45-21,41.399
	l36,156c3.75,16.2,18.15,27.9,35.1,27.9c384.15,0,696-311.25,696-696C896,55.2,884.45,40.65,868.1,36.9z"/>
</svg>
