<?xml version="1.0" encoding="utf-8"?>
<!-- Generator: Adobe Illustrator 16.0.0, SVG Export Plug-In . SVG Version: 6.00 Build 0)  -->
<!DOCTYPE svg PUBLIC "-//W3C//DTD SVG 1.1//EN" "http://www.w3.org/Graphics/SVG/1.1/DTD/svg11.dtd">
<svg version="1.1" id="Layer_1" xmlns="http://www.w3.org/2000/svg" xmlns:xlink="http://www.w3.org/1999/xlink" x="0px" y="0px"
	 width="1024px" height="768px" viewBox="0 0 1024 768" enable-background="new 0 0 1024 768" xml:space="preserve">
<path fill="#CA9D81" d="M885.5,664.05L735.95,514.5c-6.75-6.75-15.9-10.5-25.5-10.5H686c41.4-52.95,66-119.55,66-192
	C752,139.65,612.35,0,440,0C267.65,0,128,139.65,128,312c0,172.35,139.65,312,312,312c72.45,0,139.05-24.6,192-66v24.45
	c0,9.6,3.75,18.75,10.5,25.5L792.05,757.5c14.101,14.1,36.9,14.1,50.851,0l42.449-42.45C899.45,700.95,899.45,678.15,885.5,664.05z
	 M440,504c-106.05,0-192-85.8-192-192c0-106.05,85.8-192,192-192c106.05,0,192,85.8,192,192C632,418.05,546.2,504,440,504z"/>
</svg>
